<svg xmlns="http://www.w3.org/2000/svg" width="64" height="64" viewBox="0 0 533.33 533.33">
  <circle cx="266.67" cy="266.67" r="266.67" fill="#1652f0"/>
  <path d="M500.55,400l-40.8,41.08L418.67,400l41.08-41.08ZM600,300.55l70.27,70.27,41.08-41.09-70.27-70L600,218.67l-41.08,41.08-70,70L530,370.82Zm140.25,58.37L699.45,400l41.08,41.08L781.33,400ZM600,499.45l-70.27-70.27-40.8,41.09,70.27,70.26,40.8,40.8,41.08-41.08L711.35,470l-41.08-40.8Zm0-58.37L641.08,400,600,358.92,558.92,400Z" transform="translate(-333.33 -133.33)" fill="#fff"/>
</svg>
